<?xml version="1.0" encoding="UTF-8" standalone="no"?>
<!-- Created with Inkscape (http://www.inkscape.org/) -->

<svg
   version="1.1"
   id="svg1"
   width="1024"
   height="1024"
   viewBox="0 0 1024 1024"
   sodipodi:docname="logo_mm25.png"
   inkscape:export-filename="logo_mm.svg"
   inkscape:export-xdpi="96"
   inkscape:export-ydpi="96"
   xmlns:inkscape="http://www.inkscape.org/namespaces/inkscape"
   xmlns:sodipodi="http://sodipodi.sourceforge.net/DTD/sodipodi-0.dtd"
   xmlns="http://www.w3.org/2000/svg"
   xmlns:svg="http://www.w3.org/2000/svg">
  <defs
     id="defs1" />
  <sodipodi:namedview
     id="namedview1"
     pagecolor="#ffffff"
     bordercolor="#000000"
     borderopacity="0.25"
     inkscape:showpageshadow="2"
     inkscape:pageopacity="0.0"
     inkscape:pagecheckerboard="0"
     inkscape:deskcolor="#d1d1d1">
    <inkscape:page
       x="0"
       y="0"
       width="1024"
       height="1024"
       id="page2"
       margin="0"
       bleed="0" />
  </sodipodi:namedview>
  <g
     inkscape:groupmode="layer"
     inkscape:label="Image"
     id="g1">
    <path
       style="fill:#000000"
       d="m 529.85075,806 c 0.2777,-17.05 0.9982,-85.45 1.6011,-152 0.6029,-66.55 1.3251,-123.29087 1.6049,-126.09081 l 0.5087,-5.09082 26.1979,-0.65714 c 14.4089,-0.36142 55.3908,-0.65806 91.071,-0.65918 l 64.873,-0.002 6.127,4.41632 c 28.4125,20.47967 195.9696,159.95817 250.377,208.41969 15.0217,13.38014 18.253,16.76005 15,15.69008 -0.6875,-0.22613 -21.275,-7.03068 -45.75,-15.12122 l -44.5,-14.71012 -39.5,0.67159 c -88.9289,1.51198 -226.3673,3.58909 -238.9076,3.61061 l -13.4075,0.023 0.6877,-22.23017 c 0.3811,-12.31891 1.1285,-22.67102 1.6765,-23.21895 0.628,-0.62798 37.9261,-1.27952 102.2198,-1.78563 55.6771,-0.43827 105.0358,-1.12725 109.6861,-1.53105 l 8.4551,-0.7342 -7.9551,-6.56534 c -9.5538,-7.88481 -93.0192,-75.78506 -113.4066,-92.25793 L 692.05825,564.5 h -53.7985 -53.7984 l 0.014,24.25 c 0.021,37.09866 -2.0241,183.8113 -2.6143,187.58467 -0.4086,2.61191 -5.4392,8.77174 -23.2104,28.4205 -12.4789,13.79721 -24.1773,26.69661 -25.9965,28.66533 L 529.34595,837 Z m -46.9565,4.87301 c -11.5869,-12.58015 -23.0221,-25.02725 -25.4117,-27.66022 l -4.3446,-4.78721 0.6581,-101.21279 c 0.362,-55.66703 0.9477,-103.80029 1.3016,-106.96279 l 0.6435,-5.75 -54.3899,0.013 -54.3899,0.013 -51,39.76552 c -76.2454,59.44973 -87.803,68.60075 -88.2153,69.84629 -0.5236,1.58186 23.9851,2.17632 133.0008,3.22593 49.932,0.48074 91.0917,1.18028 91.466,1.55451 1.0814,1.08139 2.5288,34.18278 1.7627,40.31376 l -0.6938,5.55308 -51.6602,-0.70176 c -28.4131,-0.38604 -71.0102,-1.12322 -94.6602,-1.63823 -23.65,-0.51502 -67.525,-1.21306 -97.5,-1.55121 l -54.5,-0.61481 -41.3476,14.09039 c -40.58321,13.82993 -48.15245,16.2899 -48.15245,15.6494 0,-0.67381 26.63749,-24.10608 53.00005,-46.62266 42.5125,-36.31055 68.3247,-57.7185 102.8039,-85.263 32.742,-26.15667 78.1643,-62.64526 105.1442,-84.46432 l 15.4482,-12.49318 91.2842,0.68677 c 50.2063,0.37773 91.9672,0.94884 92.8018,1.26914 1.336,0.51266 1.5177,8.62959 1.5177,67.82578 0,77.69962 -1.8166,231.11987 -2.8188,238.06649 l -0.6812,4.72214 z M 99.05015,619.40631 c 6.065,-6.98656 29.4988,-32.31714 50.3323,-54.40631 l 23.5789,-25 -82.7896,-0.25579 -82.7896,-0.25578 0.67613,-31.74422 c 0.37187,-17.45931 0.73917,-31.8312 0.81623,-31.93753 0.077,-0.10633 31.6281,0.25233 70.11344,0.79702 38.4853,0.54468 76.1718,0.85668 83.7477,0.69332 L 176.51005,477 150.91835,447 c -14.0755,-16.5 -28.7722,-33.72673 -32.6594,-38.28163 -3.8873,-4.55489 -6.8621,-8.48727 -6.6107,-8.73862 2.3572,-2.35727 140.6615,102.77939 141.5976,107.64025 0.3584,1.861 -8.9276,9.19467 -38.7845,30.63027 -12.375,8.88454 -42.4211,30.48334 -66.769,47.99733 -24.348,17.51399 -45.723,32.68093 -47.5,33.70432 l -3.231,1.8607 z m 804.2875,-7.58532 c -23.6727,-16.04969 -82.5043,-60.33221 -113.8763,-85.71459 -16.9617,-13.72332 -20,-16.56963 -20,-18.7362 0,-3.13995 74.8856,-61.64053 121,-94.52511 18.5638,-13.23803 21.0099,-14.83753 20.9671,-13.7101 -0.018,0.47576 -14.8278,18.19001 -32.9105,39.36501 l -32.8775,38.5 85.4887,0.2556 85.48875,0.2556 -0.6868,3.12695 c -0.3778,1.71983 -0.7211,15.43978 -0.7629,30.48879 l -0.076,27.36184 -84.47135,0.25561 -84.4712,0.25561 32.5581,38.18728 c 32.0042,37.53778 34.306,40.31272 33.4389,40.31272 -0.238,0 -4.2021,-2.55555 -8.809,-5.67901 z m -601.3763,-125.4572 c -11,-8.92328 -46.1,-37.14823 -78,-62.7221 -64.0786,-51.37109 -78.2375,-63.06373 -128,-105.70457 -38.92875,-33.35748 -50.68915,-43.82696 -49.65082,-44.2007 0.92356,-0.33244 9.95821,2.62685 53.98122,17.68152 l 35.3305,12.08206 17.1695,0.006 c 9.4433,0.003 49.7946,-0.68006 89.6696,-1.518 109.7007,-2.30525 189.398,-3.32263 190.3784,-2.43027 1.468,1.33629 1.815,13.60945 0.84,29.71251 -0.5086,8.39838 -1.1135,15.4586 -1.3443,15.68939 -0.2308,0.23078 -48.7844,0.90513 -107.8969,1.49854 -102.8775,1.03228 -116.9772,1.3968 -116.9772,3.02372 0,0.39832 5.9625,5.38163 13.25,11.07401 7.2875,5.69239 38.8143,30.28351 70.0596,54.64695 L 347.58055,459.5 h 54.0803 54.0803 l -0.6443,-5.75 c -0.3544,-3.1625 -0.9245,-51.425 -1.267,-107.25 l -0.6228,-101.5 12.326,-13.5 c 6.7793,-7.425 18.2783,-19.85719 25.5534,-27.6271 l 13.2272,-14.1271 0.5965,7.1271 c 0.9327,11.14477 2.5426,159.84456 2.5471,235.26107 v 68.13396 l -19.75,0.60523 c -10.8625,0.33287 -52.6,0.85487 -92.75,1.16001 l -73,0.55478 z m 274.8206,15.38654 -43.1794,-0.27147 -0.5262,-5.23943 c -0.2895,-2.88169 -1.0186,-59.91443 -1.6203,-126.73943 -0.6017,-66.825 -1.3226,-135.225 -1.602,-152 l -0.508,-30.5 6.1789,6.5 c 16.6183,17.48177 45.5087,50.36846 46.0714,52.44428 0.3492,1.28843 1.1628,44.80306 1.808,96.69916 0.6451,51.89611 1.2594,99.30656 1.365,105.35656 l 0.192,11 53.1881,0.25873 53.1881,0.25873 18.3119,-14.71772 c 10.0715,-8.09475 28.2119,-22.7886 40.3119,-32.65299 12.1,-9.8644 34.5192,-28.10591 49.8206,-40.5367 27.705,-22.50757 27.8068,-22.60433 24.5,-23.29762 -5.7631,-1.20826 -94.9405,-2.80173 -157.102,-2.80718 -46.9052,-0.004 -59.8821,-0.27448 -60.249,-1.25525 -0.2571,-0.6875 -0.5805,-11.15 -0.7186,-23.25 l -0.251,-22 16.5,0.28766 c 9.0749,0.15822 50.6999,0.71283 92.5,1.23248 41.7999,0.51964 99.6666,1.45913 128.5926,2.08774 l 52.5927,1.14294 45.7357,-15.21365 c 25.1547,-8.36751 45.9346,-15.01482 46.1777,-14.7718 1.1077,1.10774 -33.5767,31.68307 -91.0987,80.30629 -56.8679,48.07018 -158.3915,131.29813 -175.3601,143.75817 l -6.36,4.67017 -47.64,-0.2391 c -26.2019,-0.1315 -67.0707,-0.36126 -90.8193,-0.51057 z"
       id="path1" />
  </g>
</svg>
